<?xml version="1.0" encoding="UTF-8"?>
<svg width="200px" height="200px" viewBox="0 0 200 200" version="1.1" xmlns="http://www.w3.org/2000/svg" xmlns:xlink="http://www.w3.org/1999/xlink">
    <!-- Generator: Sketch 54.1 (76490) - https://sketchapp.com -->
    <title>slippery-rock</title>
    <desc>Created with Sketch.</desc>
    <g id="slippery-rock" stroke="none" stroke-width="1" fill="none" fill-rule="evenodd">
        <g id="slippery-rock_BGL" transform="translate(0.000000, 0.000000)">
            <g id="slippery-rock" transform="translate(0.000000, 4.000000)">
                <g id="g10" transform="translate(99.943596, 96.415119) scale(-1, 1) rotate(-180.000000) translate(-99.943596, -96.415119) translate(0.000000, 0.306831)" fill-rule="nonzero">
                    <g id="g12">
                        <path d="M184.301405,189.573825 L67.6760276,189.573825 C53.0382389,189.573825 32.9921255,189.573825 17.3736262,178.880086 C3.12746749,169.086065 2.67572695,157.691141 2.27739193,147.637673 L2.27298359,147.531186 L2.27298359,118.071063 L2.27650756,117.969089 C2.63430563,108.478283 3.12570325,95.4820055 18.8996273,84.9475444 C33.3595931,75.0574149 50.6612508,74.7848825 65.9271275,74.5448374 L67.2992651,74.5240816 C67.2992651,74.5240816 106.064746,74.5240816 114.772248,74.5240816 C114.772248,68.1511545 114.772248,56.1958249 114.772248,49.8224466 C107.907499,49.8224466 91.9381816,49.8224466 85.0738839,49.8224466 C85.0738839,54.920698 85.0738839,62.1861237 85.0738839,62.1861237 L6.02368851,62.1861237 L6.02368851,2.27315956 L129.921711,2.27315956 C143.525772,2.27315956 156.374503,2.27315956 169.646471,7.09761968 C196.60101,16.6433837 197.173148,35.3799878 197.551715,47.7780022 L197.576532,48.5879288 L197.576532,76.9236303 C197.576532,87.1300599 197.575178,104.208909 175.21669,113.86892 C161.334232,120.031131 144.766155,120.302761 130.147769,120.541452 L128.094751,120.575293 C128.094751,120.575293 93.5981928,120.575293 85.0738839,120.575293 C85.0738839,126.556116 85.0738839,136.042862 85.0738839,142.023234 C91.9381816,142.023234 107.907499,142.023234 114.772248,142.023234 C114.772248,137.516973 114.772248,131.659331 114.772248,131.659331 L189.702421,131.659331 L189.702421,189.573825 L184.301405,189.573825" id="path14" fill="#FFFFFF"></path>
                        <path d="M8.29685258,4.54650863 L129.921711,4.54650863 C143.319117,4.54650863 155.974277,4.54650863 168.869934,9.23366023 C194.376532,18.2674333 194.898585,35.3637893 195.27986,47.8470377 L195.303323,48.622221 L195.303323,76.9236303 C195.303323,87.1936808 195.303323,102.714041 174.315168,111.782513 C160.832935,117.766946 144.51122,118.033612 130.110769,118.268694 L128.057301,118.302535 L82.801126,118.302535 L82.801126,144.295992 L117.045457,144.295992 L117.045457,133.932089 L187.429211,133.932089 L187.429211,187.300616 L67.6760276,187.300616 C53.3355881,187.300616 33.6955209,187.300616 18.6580029,177.004395 C5.35354753,167.857864 4.94429768,157.532765 4.54880981,147.54743 L4.54614766,147.48426 L4.54826836,118.0476 C4.90621533,108.553184 5.35196828,96.728706 20.1619848,86.8381253 C34.0788711,77.3188926 51.0177088,77.0526771 65.9627733,76.8175954 L67.3335573,76.7968396 L117.045457,76.7968396 L117.045457,47.5492374 L82.801126,47.5492374 L82.801126,59.9129145 L8.29685258,59.9129145 L8.29685258,4.54650863 Z M129.921711,0 L3.75070493,0 L3.75070493,64.4593328 L87.3470931,64.4593328 L87.3470931,52.0956558 L112.499038,52.0956558 L112.499038,72.2508724 L67.2992651,72.2508724 L65.8928354,72.2720794 C50.3056953,72.5170879 32.6406309,72.7950348 17.6163335,83.0714023 C0.896433142,94.2375611 0.36008888,108.467002 0.00511138171,117.883359 L0,118.071063 L0.00634517751,147.731525 C0.405033718,157.790408 0.901017462,170.313814 16.0859105,180.753521 C32.2883241,191.846583 52.7417923,191.846583 67.6760276,191.846583 L191.97563,191.846583 L191.97563,129.386122 L112.499038,129.386122 L112.499038,139.750025 L87.3470931,139.750025 L87.3470931,122.848502 L128.094751,122.848502 L130.18522,122.81421 C145.018835,122.571909 161.83237,122.29712 176.138969,115.946754 C199.849741,105.702423 199.849741,86.9811597 199.849741,76.9236303 L199.848839,48.5175397 L199.823571,47.707613 C199.450418,35.4824131 198.825489,15.0195597 170.40541,4.95472069 C156.774728,0 143.731074,0 129.921711,0 L129.921711,0 Z" id="path16" fill="#00674E"></path>
                        <path d="M184.301405,184.173261 L184.301405,137.060346 L120.17236,137.060346 L120.17236,147.423798 L79.6733201,147.423798 L79.6733201,115.17518 L128.046472,115.17518 C142.672078,114.922953 159.550137,114.922953 173.046358,108.924081 C192.175968,100.673658 192.175968,87.1738275 192.175968,76.9236303 L192.175968,48.673208 C191.799657,36.6732083 191.799657,20.6719002 167.80056,12.1728593 C155.422895,7.67291577 143.04884,7.67291577 129.921711,7.67291577 L11.4246585,7.67291577 L11.4246585,56.7855598 L79.6733201,56.7855598 L79.6733201,44.4224242 L120.17236,44.4224242 L120.17236,79.9250967 L67.2992651,79.9250967 C51.924195,80.1732636 35.4230335,80.1732636 21.9232933,89.4217688 C8.80022539,98.1730376 8.05062586,108.174617 7.67395356,118.172586 L7.67395356,147.423798 C8.05062586,156.924982 8.42341773,166.173487 20.4245906,174.42391 C34.3007775,183.924643 52.6736591,184.173261 67.6760276,184.173261 L184.301405,184.173261" id="path18" fill="#00674E"></path>
                    </g>
                </g>
            </g>
        </g>
    </g>
</svg>